<svg id="visual" viewBox="0 0 1920 1080" width="1920" height="1080" xmlns="http://www.w3.org/2000/svg" xmlns:xlink="http://www.w3.org/1999/xlink" version="1.1"><path d="M0 629L64 628.5C128 628 256 627 384 642.3C512 657.7 640 689.3 768 691.5C896 693.7 1024 666.3 1152 641.7C1280 617 1408 595 1536 585C1664 575 1792 577 1856 578L1920 579L1920 1081L1856 1081C1792 1081 1664 1081 1536 1081C1408 1081 1280 1081 1152 1081C1024 1081 896 1081 768 1081C640 1081 512 1081 384 1081C256 1081 128 1081 64 1081L0 1081Z" fill="#084887" stroke-linecap="round" stroke-linejoin="miter"></path></svg>